<svg width="16" height="16" viewBox="0 0 16 16" fill="none" xmlns="http://www.w3.org/2000/svg">
<path d="M10.24 10.656C10.24 9.23202 9.328 8.38402 8.048 8.38402H6.752V6.84802H8.048C9.168 6.84802 9.888 6.08002 9.888 4.97602C9.888 3.82402 9.104 3.08802 8.016 3.08802C6.88 3.08802 6.144 3.82402 6.144 4.97602V5.10402H4.336V4.83202C4.336 2.94402 5.696 1.52002 8.016 1.52002C10.336 1.52002 11.68 2.94402 11.68 4.83202C11.68 6.12802 10.944 7.23202 9.776 7.60002C11.152 8.00002 12.048 9.08802 12.048 10.768C12.048 13.04 10.368 14.48 8.016 14.48C5.664 14.48 3.952 13.04 3.952 10.72V10.528H5.776V10.624C5.776 12.096 6.72 12.912 8.016 12.912C9.28 12.912 10.24 12.112 10.24 10.656Z" fill="#FF3A92"/>
</svg>
