<svg width="16" height="16" viewBox="0 0 16 16" fill="none" xmlns="http://www.w3.org/2000/svg">
<path d="M5.832 7.42402C6.216 6.67202 7.064 6.14402 8.248 6.14402C10.488 6.14402 12.024 7.72802 12.024 10.304C12.024 12.896 10.328 14.48 8.008 14.48C6.6 14.48 5.512 13.888 4.824 12.784C4.168 11.968 3.976 10.464 3.976 8.70402C3.976 3.45602 5.176 1.52002 8.056 1.52002C10.072 1.52002 11.464 2.57602 11.752 4.65602H9.912C9.736 3.64802 9.096 3.08802 8.04 3.08802C6.472 3.08802 5.896 4.44802 5.832 7.42402ZM5.816 10.304C5.816 11.952 6.664 12.912 8.008 12.912C9.368 12.912 10.232 11.952 10.232 10.304C10.232 8.68802 9.368 7.71202 8.008 7.71202C6.664 7.71202 5.816 8.68802 5.816 10.304Z" fill="#FF3A92"/>
</svg>
