<svg width="16" height="16" viewBox="0 0 16 16" fill="none" xmlns="http://www.w3.org/2000/svg">
<path d="M7.992 7.59202C7.208 7.59202 6.616 7.97602 6.296 8.60002H4.504L4.824 1.62402H11.24V3.19202H6.504L6.312 7.01602C6.648 6.44002 7.432 6.04002 8.376 6.04002C10.408 6.04002 11.928 7.44802 11.928 10.232C11.928 12.856 10.424 14.376 7.992 14.376C5.736 14.376 4.232 13.032 4.072 10.808H5.864C6.008 12.136 6.808 12.84 7.992 12.84C9.32 12.84 10.12 11.912 10.12 10.2C10.12 8.48802 9.32 7.59202 7.992 7.59202Z" fill="#FF3A92"/>
</svg>
